<?xml version="1.0" encoding="utf-8"?>
<svg xmlns="http://www.w3.org/2000/svg" viewBox="0 0 500 500" xml:space="preserve">
    <path style="fill:#E2761B;stroke:#E2761B;stroke-linecap:round;stroke-linejoin:round" d="M482.3,163L267.7,4.7c-2.8-2.1-6.6-2.1-9.4,0L43.7,163c-2.8,2.1-4,5.6-3,8.9l78.8,276.5c0.9,3.2,3.9,5.5,7.3,5.5h272.4
        c3.4,0,6.4-2.2,7.3-5.5L485.3,172C486.3,168.6,485.1,165.1,482.3,163z M263,87.5l154.8,115.9L315.5,242L263,87.5z M237,87.5
        L184.5,242L82.2,203.4L237,87.5z M61.8,234.5l70.9,26.6L80,408.9L61.8,234.5z M250,449.9l-98.4-68.8l76.3-157.9L250,449.9z
         M250,264.8l22.2-45.9l80.2,30.1L250,449.9V264.8z M418.2,408.9l-52.7-147.8l70.9-26.6L418.2,408.9z"/>
</svg>
